<!--?xml version="1.0" standalone="no"?-->
              <svg id="sw-js-blob-svg" viewBox="0 0 100 100" xmlns="http://www.w3.org/2000/svg" version="1.1">
                    <defs> 
                        <linearGradient id="sw-gradient" x1="0" x2="1" y1="1" y2="0">
                            <stop id="stop1" stop-color="rgba(255, 40.316, 251.242, 1)" offset="0%"></stop>
                            <stop id="stop2" stop-color="rgba(251, 168, 31, 1)" offset="100%"></stop>
                        </linearGradient>
                    </defs>
                <path fill="url(#sw-gradient)" d="M21,-28.9C28.6,-23.5,36.9,-19.1,41.4,-11.9C46,-4.7,46.6,5.3,43.9,14.4C41.2,23.5,35.1,31.7,27.2,34C19.3,36.3,9.6,32.7,0.3,32.4C-9.1,32,-18.2,34.7,-23.7,31.7C-29.2,28.6,-31.2,19.7,-34.2,11C-37.3,2.3,-41.3,-6.2,-39.4,-13C-37.4,-19.8,-29.6,-24.9,-22,-30.3C-14.5,-35.6,-7.2,-41.4,-0.3,-41C6.7,-40.7,13.5,-34.3,21,-28.9Z" width="100%" height="100%" transform="translate(50 50)" stroke-width="0" style="transition: 0.3s;"></path>
              </svg>